HIERARCHY
ROOT Hips
{
	OFFSET 0.00000 0.00000 0.00000
	CHANNELS 6 Xposition Yposition Zposition Zrotation Yrotation Xrotation 
	JOINT LHipJoint
	{
		OFFSET 0 0 0
		CHANNELS 3 Zrotation Yrotation Xrotation
		JOINT LeftUpLeg
		{
			OFFSET 1.92384 -1.64427 0.83032
			CHANNELS 3 Zrotation Yrotation Xrotation
			JOINT LeftLeg
			{
				OFFSET 2.52872 -6.94761 0.00000
				CHANNELS 3 Zrotation Yrotation Xrotation
				JOINT LeftFoot
				{
					OFFSET 2.51827 -6.91890 0.00000
					CHANNELS 3 Zrotation Yrotation Xrotation
					JOINT LeftToeBase
					{
						OFFSET 0.22757 -0.62524 2.06528
						CHANNELS 3 Zrotation Yrotation Xrotation
						End Site
						{
							OFFSET 0.00000 -0.00000 1.08218
						}
					}
				}
			}
		}
	}
	JOINT RHipJoint
	{
		OFFSET 0 0 0
		CHANNELS 3 Zrotation Yrotation Xrotation
		JOINT RightUpLeg
		{
			OFFSET -2.09517 -1.64427 0.83032
			CHANNELS 3 Zrotation Yrotation Xrotation
			JOINT RightLeg
			{
				OFFSET -2.55173 -7.01082 0.00000
				CHANNELS 3 Zrotation Yrotation Xrotation
				JOINT RightFoot
				{
					OFFSET -2.50265 -6.87598 0.00000
					CHANNELS 3 Zrotation Yrotation Xrotation
					JOINT RightToeBase
					{
						OFFSET -0.22612 -0.62126 1.98677
						CHANNELS 3 Zrotation Yrotation Xrotation
						End Site
						{
							OFFSET -0.00000 -0.00000 1.04433
						}
					}
				}
			}
		}
	}
	JOINT LowerBack
	{
		OFFSET 0 0 0
		CHANNELS 3 Zrotation Yrotation Xrotation
		JOINT Spine
		{
			OFFSET 0.02839 1.68926 0.31690
			CHANNELS 3 Zrotation Yrotation Xrotation
			JOINT Spine1
			{
				OFFSET -0.01522 1.70183 0.21192
				CHANNELS 3 Zrotation Yrotation Xrotation
				JOINT Neck
				{
					OFFSET 0 0 0
					CHANNELS 3 Zrotation Yrotation Xrotation
					JOINT Neck1
					{
						OFFSET -0.04523 1.88988 0.10630
						CHANNELS 3 Zrotation Yrotation Xrotation
						JOINT Head
						{
							OFFSET 0.05172 1.78070 -0.56858
							CHANNELS 3 Zrotation Yrotation Xrotation
							End Site
							{
								OFFSET 0.01532 1.90392 -0.20434
							}
						}
					}
				}
				JOINT LeftShoulder
				{
					OFFSET 0 0 0
					CHANNELS 3 Zrotation Yrotation Xrotation
					JOINT LeftArm
					{
						OFFSET 3.25522 0.75486 0.22086
						CHANNELS 3 Zrotation Yrotation Xrotation
						JOINT LeftForeArm
						{
							OFFSET 4.85645 -0.00000 0.00000
							CHANNELS 3 Zrotation Yrotation Xrotation
							JOINT LeftHand
							{
								OFFSET 2.79874 -0.00000 0.00000
								CHANNELS 3 Zrotation Yrotation Xrotation
								JOINT LeftFingerBase
								{
									OFFSET 0 0 0
									CHANNELS 3 Zrotation Yrotation Xrotation
									JOINT LeftHandIndex1
									{
										OFFSET 0.57340 -0.00000 0.00000
										CHANNELS 3 Zrotation Yrotation Xrotation
										End Site
										{
											OFFSET 0.46229 -0.00000 0.00000
										}
									}
								}
								JOINT LThumb
								{
									OFFSET 0 0 0
									CHANNELS 3 Zrotation Yrotation Xrotation
									End Site
									{
										OFFSET 0.46935 -0.00000 0.46935
									}
								}
							}
						}
					}
				}
				JOINT RightShoulder
				{
					OFFSET 0 0 0
					CHANNELS 3 Zrotation Yrotation Xrotation
					JOINT RightArm
					{
						OFFSET -3.29079 0.52751 0.36356
						CHANNELS 3 Zrotation Yrotation Xrotation
						JOINT RightForeArm
						{
							OFFSET -4.67018 -0.00000 0.00000
							CHANNELS 3 Zrotation Yrotation Xrotation
							JOINT RightHand
							{
								OFFSET -2.65534 -0.00000 0.00000
								CHANNELS 3 Zrotation Yrotation Xrotation
								JOINT RightFingerBase
								{
									OFFSET 0 0 0
									CHANNELS 3 Zrotation Yrotation Xrotation
									JOINT RightHandIndex1
									{
										OFFSET -0.59407 -0.00000 0.00000
										CHANNELS 3 Zrotation Yrotation Xrotation
										End Site
										{
											OFFSET -0.47895 -0.00000 0.00000
										}
									}
								}
								JOINT RThumb
								{
									OFFSET 0 0 0
									CHANNELS 3 Zrotation Yrotation Xrotation
									End Site
									{
										OFFSET -0.48627 -0.00000 0.48627
									}
								}
							}
						}
					}
				}
			}
		}
	}
}
MOTION
Frames: 13
Frame Time: .0083333
7.3887 24.8472 -22.9283 9.5300 -76.6998 18.6842 0.0000 0.0000 0.0000 -17.2414 -28.4847 -40.4793 2.8142 10.3881 30.2428 0.5652 -0.0390 -14.1929 0.1866 -2.7819 -7.6722 0.0000 0.0000 0.0000 1.9289 27.1566 -50.1630 -7.2773 -15.5610 49.9153 -0.9933 -0.4778 -19.0171 -0.1928 2.8274 -7.7986 -7.1948 3.6764 8.7779 -4.8797 -0.7152 -23.9430 -1.7274 -0.7051 -44.6985 8.5585 7.0686 11.4907 -0.0225 5.2391 59.4700 -1.9634 1.9575 25.8490 -0.0000 -0.0000 0.0000 -73.1904 48.4892 41.4185 28.7795 -39.8240 -10.6192 -0.0000 0.0000 -6.0531 14.4915 28.2437 6.9731 -7.1250 0.0000 -0.0000 -17.9876 58.0859 -5.8836 -0.0000 -0.0000 0.0000 88.5792 -57.9006 25.5955 -23.1816 34.2868 -7.2403 0.0000 0.0000 5.8536 -15.1404 -12.6250 3.3845 7.1250 -0.0000 -0.0000 10.9679 -42.7773 0.6095
7.3673 24.8571 -22.9748 8.7003 -75.3739 19.6681 0.0000 0.0000 0.0000 -16.7787 -28.9563 -40.4844 2.7742 10.3203 30.0202 0.5652 -0.5909 -14.0119 0.2095 -2.9467 -8.1304 0.0000 0.0000 0.0000 0.9553 28.0682 -50.0889 -6.9744 -15.3103 48.7776 -1.0272 0.7118 -18.9346 -0.2660 3.3177 -9.1645 -6.7979 4.5011 8.8001 -5.9739 0.5491 -23.8346 -4.3287 -0.9791 -44.4592 9.0450 5.9414 10.9503 0.4504 3.3557 59.4452 -1.9680 1.4679 25.8449 0.0000 -0.0000 0.0000 -69.4382 47.0659 46.0257 28.7003 -39.7530 -10.5685 -0.0000 0.0000 -6.3075 14.4051 28.3366 6.9509 -7.1250 0.0000 -0.0000 -18.1387 58.1554 -5.9658 0.0000 -0.0000 0.0000 93.9671 -57.9417 19.5122 -23.2848 34.3988 -7.2986 0.0000 0.0000 5.9715 -14.9591 -12.1847 3.2277 7.1250 -0.0000 -0.0000 11.0252 -42.3141 0.7405
7.3448 24.8679 -23.0220 8.0011 -74.0529 20.5119 0.0000 0.0000 0.0000 -16.3144 -29.4050 -40.4760 2.7309 10.2461 29.7772 0.5653 -1.1607 -13.8512 0.2358 -3.1249 -8.6268 0.0000 0.0000 0.0000 0.0010 28.9736 -49.9886 -6.6750 -15.0520 47.6340 -1.0555 2.0211 -18.8478 -0.3469 3.7844 -10.4709 -6.4119 5.2972 8.8295 -7.0226 1.7760 -23.7263 -6.8308 -1.2170 -44.0914 9.5239 4.8595 10.3829 0.8902 1.5415 59.3828 -1.9867 1.0007 25.8370 0.0000 -0.0000 0.0000 -66.0429 45.4748 50.3036 28.6056 -39.6678 -10.5080 -0.0000 0.0000 -6.5823 14.3889 28.4396 6.9657 -7.1250 0.0000 -0.0000 -18.2241 58.2499 -6.0369 0.0000 -0.0000 0.0000 99.1019 -57.6783 13.7259 -23.3886 34.5110 -7.3573 0.0000 0.0000 6.0478 -14.8351 -11.7553 3.0888 7.1250 -0.0000 -0.0000 11.0361 -41.8682 0.8643
7.3213 24.8790 -23.0696 7.3821 -72.7230 21.2627 0.0000 0.0000 0.0000 -15.8110 -29.9016 -40.4451 2.6853 10.1674 29.5204 0.5650 -1.6855 -13.7195 0.2652 -3.3127 -9.1507 0.0000 0.0000 0.0000 -0.9185 29.8597 -49.8578 -6.3825 -14.7890 46.4980 -1.0749 3.3942 -18.7569 -0.4325 4.2205 -11.6979 -6.0209 6.0500 8.8718 -8.0139 2.9495 -23.6174 -9.2154 -1.4175 -43.6200 9.9758 3.8350 9.7870 1.3096 -0.1927 59.2986 -2.0084 0.5552 25.8422 0.0000 -0.0000 0.0000 -63.0374 43.7769 54.1727 28.4956 -39.5685 -10.4379 -0.0000 0.0000 -6.8400 14.4077 28.5572 7.0013 -7.1250 0.0000 -0.0000 -18.2830 58.3656 -6.1085 0.0000 -0.0000 0.0000 103.8511 -57.1590 8.3779 -23.4954 34.6261 -7.4179 0.0000 0.0000 6.0883 -14.7801 -11.4175 2.9898 7.1250 -0.0000 -0.0000 11.0086 -41.5217 0.9574
7.2965 24.8900 -23.1167 6.8282 -71.3922 21.9418 0.0000 0.0000 0.0000 -15.2928 -30.4012 -40.4099 2.6393 10.0868 29.2583 0.5664 -2.1984 -13.6323 0.3021 -3.5339 -9.7689 0.0000 0.0000 0.0000 -1.8013 30.7243 -49.7053 -6.1017 -14.5262 45.3885 -1.0824 4.7584 -18.6546 -0.5168 4.6077 -12.7928 -5.6225 6.7564 8.9137 -8.9446 4.0665 -23.5129 -11.4731 -1.5759 -43.0567 10.3811 2.8760 9.1762 1.7260 -1.8392 59.1960 -2.0179 0.1302 25.8568 -0.0000 0.0000 0.0000 -60.4047 42.0219 57.5987 28.3716 -39.4561 -10.3590 -0.0000 0.0000 -7.0156 14.3598 28.6655 7.0012 -7.1250 0.0000 -0.0000 -18.4059 58.4578 -6.1925 -0.0000 0.0000 0.0000 108.1471 -56.4397 3.5489 -23.6052 34.7440 -7.4804 0.0000 0.0000 6.1007 -14.8114 -11.2025 2.9408 7.1250 -0.0000 -0.0000 10.9342 -41.3075 1.0093
7.2709 24.9005 -23.1628 6.3433 -70.0504 22.5469 0.0000 0.0000 0.0000 -14.7672 -30.9115 -40.3739 2.5936 10.0062 28.9969 0.5705 -2.7204 -13.5970 0.3474 -3.7871 -10.4784 0.0000 0.0000 0.0000 -2.6405 31.5477 -49.5312 -5.8369 -14.2684 44.3236 -1.0794 6.0257 -18.5540 -0.5936 4.9327 -13.7167 -5.2061 7.4191 8.9517 -9.8270 5.1327 -23.4109 -13.6280 -1.6946 -42.4021 10.7504 1.9721 8.5452 2.1461 -3.4187 59.0781 -2.0164 -0.2786 25.8872 0.0000 -0.0000 0.0000 -58.0949 40.2295 60.6522 28.2401 -39.3363 -10.2755 -0.0000 0.0000 -7.1389 14.2621 28.7759 6.9763 -7.1250 0.0000 -0.0000 -18.5828 58.5408 -6.2921 0.0000 -0.0000 0.0000 112.0099 -55.5627 -0.7761 -23.7266 34.8738 -7.5497 0.0000 0.0000 6.0666 -14.9121 -11.1280 2.9423 7.1250 -0.0000 -0.0000 10.8303 -41.2414 1.0174
7.2445 24.9104 -23.2080 5.9260 -68.6977 23.0827 0.0000 0.0000 0.0000 -14.2682 -31.3751 -40.3539 2.5497 9.9277 28.7429 0.5773 -3.2952 -13.6071 0.4075 -4.0978 -11.3521 0.0000 0.0000 0.0000 -3.4399 32.3402 -49.3370 -5.5927 -14.0217 43.3243 -1.0694 7.1148 -18.4663 -0.6515 5.1630 -14.3742 -4.7678 8.0361 8.9843 -10.6683 6.1442 -23.3091 -15.6885 -1.7760 -41.6637 11.0816 1.1251 7.9062 2.5843 -4.9290 58.9352 -1.9939 -0.6704 25.9168 0.0000 -0.0000 0.0000 -56.0179 38.3904 63.4299 28.1080 -39.2155 -10.1919 -0.0000 0.0000 -7.2782 14.1066 28.8937 6.9234 -7.1250 0.0000 -0.0000 -18.8261 58.6179 -6.4133 0.0000 -0.0000 0.0000 115.4614 -54.5402 -4.6682 -23.8273 34.9811 -7.6073 0.0000 0.0000 6.0358 -15.0355 -11.0746 2.9537 7.1250 -0.0000 -0.0000 10.7113 -41.1986 1.0173
7.2171 24.9196 -23.2525 5.5783 -67.3352 23.5384 0.0000 0.0000 0.0000 -13.7915 -31.8220 -40.3321 2.5078 9.8521 28.4990 0.5866 -3.8891 -13.6686 0.4857 -4.4687 -12.3991 0.0000 0.0000 0.0000 -4.1750 33.0902 -49.1103 -5.3719 -13.7908 42.4057 -1.0598 7.9510 -18.4210 -0.6960 5.3330 -14.8607 -4.3255 8.6036 9.0141 -11.4526 7.0934 -23.2059 -17.6104 -1.8077 -40.8601 11.3627 0.3426 7.2731 3.0181 -6.3409 58.7731 -1.9581 -1.0381 25.9463 -0.0000 -0.0000 0.0000 -54.2117 36.5505 65.9048 27.9732 -39.0915 -10.1068 -0.0000 0.0000 -7.4278 13.9034 29.0219 6.8479 -7.1250 0.0000 -0.0000 -19.1270 58.6936 -6.5557 -0.0000 -0.0000 0.0000 118.4490 -53.4364 -8.0804 -23.9227 35.0824 -7.6621 0.0000 0.0000 5.9652 -15.1449 -11.0472 2.9689 7.1250 -0.0000 -0.0000 10.6101 -41.1807 1.0122
7.1892 24.9279 -23.2984 5.3046 -65.9650 23.9324 0.0000 0.0000 0.0000 -13.3360 -32.2301 -40.3444 2.4687 9.7808 28.2699 0.5977 -4.5270 -13.7694 0.5859 -4.9011 -13.6266 0.0000 0.0000 0.0000 -4.8382 33.7856 -48.8829 -5.1760 -13.5793 41.5778 -1.0565 8.5039 -18.4345 -0.7285 5.4535 -15.2066 -3.9136 9.1224 9.0289 -12.1779 7.9693 -23.1073 -19.3614 -1.7863 -40.0252 11.5804 -0.3804 6.6718 3.4487 -7.6534 58.5907 -1.9040 -1.3855 25.9616 0.0000 -0.0000 0.0000 -52.6614 34.7424 68.1087 27.8311 -38.9603 -10.0173 -0.0000 0.0000 -7.5996 13.6614 29.1455 6.7511 -7.1250 0.0000 -0.0000 -19.4660 58.7561 -6.7070 0.0000 -0.0000 0.0000 121.0025 -52.2991 -11.0479 -24.0170 35.1822 -7.7163 0.0000 0.0000 5.8448 -15.2399 -11.0525 2.9898 7.1250 -0.0000 -0.0000 10.5284 -41.1946 1.0006
7.1603 24.9345 -23.3455 5.1037 -64.5867 24.2336 0.0000 0.0000 0.0000 -12.9090 -32.6260 -40.3493 2.4328 9.7148 28.0579 0.6097 -5.1968 -13.9031 0.7007 -5.3505 -14.9110 0.0000 0.0000 0.0000 -5.3789 34.3886 -48.6094 -5.0036 -13.3878 40.8382 -1.0599 8.8178 -18.4929 -0.7570 5.5568 -15.5037 -3.5182 9.6017 9.0476 -12.8571 8.7895 -22.9962 -20.9711 -1.7097 -39.1343 11.7490 -1.0443 6.0899 3.8801 -8.8579 58.3687 -1.8295 -1.7051 25.9398 0.0000 -0.0000 0.0000 -51.3389 32.9197 70.0543 27.6833 -38.8230 -9.9245 -0.0000 0.0000 -7.8477 13.3092 29.3125 6.6062 -7.1250 0.0000 -0.0000 -19.9517 58.8341 -6.9205 0.0000 -0.0000 0.0000 123.1783 -51.1094 -13.6538 -24.1113 35.2818 -7.7708 0.0000 0.0000 5.6609 -15.2566 -11.0487 2.9922 7.1250 -0.0000 -0.0000 10.5130 -41.1922 0.9997
7.1303 24.9394 -23.3942 4.9550 -63.2067 24.4743 0.0000 0.0000 0.0000 -12.4900 -33.0187 -40.3615 2.4008 9.6552 27.8673 0.6229 -5.8721 -14.0734 0.8328 -5.8220 -16.2687 0.0000 0.0000 0.0000 -5.7589 34.8628 -48.3005 -4.8515 -13.2145 40.1770 -1.0690 8.9522 -18.5834 -0.7917 5.6798 -15.8582 -3.1580 10.0336 9.0649 -13.4748 9.5358 -22.8803 -22.4002 -1.5860 -38.2393 11.8993 -1.6453 5.5310 4.2632 -9.9326 58.1315 -1.7675 -1.9848 25.9000 0.0000 0.0000 0.0000 -50.2398 31.1466 71.7537 27.5231 -38.6735 -9.8243 -0.0000 0.0000 -8.1071 12.9546 29.5012 6.4628 -7.1250 0.0000 -0.0000 -20.4571 58.9310 -7.1531 0.0000 0.0000 0.0000 124.9837 -49.9366 -15.8702 -24.2055 35.3809 -7.8252 0.0000 0.0000 5.4458 -15.2796 -11.0780 3.0048 7.1250 -0.0000 -0.0000 10.4992 -41.2242 0.9900
7.0989 24.9429 -23.4427 4.8275 -61.8221 24.6821 0.0000 0.0000 0.0000 -12.0587 -33.4411 -40.3724 2.3726 9.6025 27.6987 0.6370 -6.5154 -14.2712 0.9743 -6.2838 -17.6100 0.0000 0.0000 0.0000 -5.9431 35.1731 -47.9432 -4.7156 -13.0561 39.5790 -1.0759 8.9989 -18.6457 -0.8333 5.8237 -16.2736 -2.8005 10.4159 9.0717 -14.0342 10.2146 -22.7629 -23.6766 -1.4288 -37.3380 12.0391 -2.1814 4.9979 4.6039 -10.8790 57.8874 -1.7157 -2.2237 25.8475 0.0000 0.0000 0.0000 -49.3365 29.4565 73.2022 27.3449 -38.5061 -9.7131 -0.0000 0.0000 -8.3461 12.6645 29.7017 6.3531 -7.1250 0.0000 -0.0000 -20.9062 59.0523 -7.3802 0.0000 0.0000 0.0000 126.4711 -48.8073 -17.7373 -24.2989 35.4788 -7.8794 0.0000 0.0000 5.2140 -15.3100 -11.1200 3.0223 7.1250 -0.0000 -0.0000 10.4816 -41.2696 0.9764
7.0656 24.9454 -23.4903 4.7043 -60.4427 24.8715 0.0000 0.0000 0.0000 -11.6350 -33.8515 -40.3783 2.3477 9.5555 27.5490 0.6529 -7.1338 -14.5015 1.1293 -6.7497 -18.9760 0.0000 0.0000 0.0000 -5.9179 35.3126 -47.5312 -4.5928 -12.9100 39.0324 -1.0732 9.0165 -18.6251 -0.8640 5.9271 -16.5731 -2.4446 10.7502 9.0685 -14.5350 10.8271 -22.6484 -24.8101 -1.2512 -36.4587 12.1623 -2.6581 4.5146 4.9187 -11.7107 57.6404 -1.6630 -2.4296 25.7778 -0.0000 -0.0000 0.0000 -48.5785 27.8767 74.4370 27.1558 -38.3274 -9.5956 -0.0000 0.0000 -8.5578 12.5765 29.8654 6.3392 -7.1250 0.0000 -0.0000 -21.1201 59.1843 -7.5274 -0.0000 -0.0000 0.0000 127.7059 -47.7857 -19.2873 -24.4135 35.5985 -7.9460 0.0000 0.0000 4.9371 -15.3333 -11.1542 3.0363 7.1250 -0.0000 -0.0000 10.4687 -41.3064 0.9655
